<svg width="51" height="17" viewBox="0 0 51 17" fill="none" xmlns="http://www.w3.org/2000/svg">
<g clip-path="url(#clip0)">
<path d="M10.0317 16.9142C12.1136 16.9142 13.8013 15.2117 13.8013 13.1115C13.8013 11.0114 12.1136 9.3089 10.0317 9.3089C7.94978 9.3089 6.26208 11.0114 6.26208 13.1115C6.26208 15.2117 7.94978 16.9142 10.0317 16.9142Z" fill="#8C8C8C"/>
<path d="M42.2825 17C44.3599 17 46.0439 15.2783 46.0439 13.1545C46.0439 11.0307 44.3599 9.30896 42.2825 9.30896C40.2051 9.30896 38.5211 11.0307 38.5211 13.1545C38.5211 15.2783 40.2051 17 42.2825 17Z" fill="#8C8C8C"/>
<path d="M50.823 13.1546C50.823 12.8863 50.9115 12.618 50.9557 12.305C51 11.7684 51 11.2318 50.9115 10.74C50.7345 9.53265 50.5132 8.63834 49.4512 7.96761C47.9909 6.98388 46.3536 6.49201 44.5835 6.08957C43.1675 5.77656 41.7072 5.50827 40.2469 5.32941C39.6273 5.23998 39.0963 5.15055 38.4768 5.19527C37.7245 5.23998 37.5918 5.2847 36.8395 4.79283C35.9102 4.21153 34.9809 3.67495 34.0516 3.13837C32.0603 2.0652 30.069 0.857888 27.8121 0.455451C25.7766 0.0977292 23.6525 -0.0364165 21.6169 0.00829876C19.1831 0.0977292 16.8377 0.231875 14.4039 0.544882C12.4126 0.813173 10.4655 1.61805 8.60694 2.37821C6.61562 3.18308 4.44729 4.39039 2.19046 4.39039C1.92495 4.39039 1.57093 4.21153 1.39393 4.52454C1.30542 4.7034 1.52668 4.97169 1.48243 5.19527C1.43818 5.77656 1.12842 6.04486 1.26117 6.71559C1.30542 6.98388 1.43818 7.20745 1.39393 7.47574C1.39393 7.69932 1.26117 8.01233 1.17267 8.2359C0.95141 8.90663 0.774404 9.08549 0.199132 9.48793C-0.110629 9.66679 0.0221258 10.2928 0.0663774 10.6058C0.154881 11.7684 0.154881 12.7521 1.30542 13.2887C2.27896 13.7806 3.60651 13.8253 4.66855 14.0042C5.02256 14.0489 5.24382 14.1383 5.37657 14.0936C5.24382 13.4676 5.24382 12.7969 5.42082 12.1261C5.90759 9.89037 7.94317 8.28062 10.1557 8.32533C12.6781 8.41476 14.7137 10.5164 14.7137 13.1546C14.7137 13.4229 14.6694 13.7806 14.6252 14.0936C14.5809 14.2725 14.7137 14.4066 14.8907 14.4066H15.82C20.3779 14.496 24.9358 14.5855 29.4937 14.6749C31.7505 14.7196 33.9631 14.7643 36.22 14.809H37.3705C37.5918 14.809 37.7688 14.6749 37.7245 14.4066C37.636 14.0489 37.5033 12.8416 37.5918 12.305C37.99 9.9798 40.0698 8.2359 42.3709 8.28062C44.8933 8.37005 46.9731 10.4717 46.9731 13.1099C46.9731 13.6017 46.8846 14.0936 46.7518 14.5408C46.7076 14.7196 46.8403 14.8985 47.0174 14.8538C47.6811 14.8538 48.3892 14.7196 48.9644 14.6302C49.3184 14.5855 49.6282 14.496 49.938 14.4066C50.3805 14.2725 51 14.3172 51 13.7806C51 13.6017 50.8672 13.3782 50.823 13.1546Z" fill="#8C8C8C"/>
</g>
<defs>
<clipPath id="clip0">
<rect width="51" height="17" fill="white"/>
</clipPath>
</defs>
</svg>
