<svg width="58" height="17" viewBox="0 0 58 17" fill="none" xmlns="http://www.w3.org/2000/svg">
<g clip-path="url(#clip0)">
<path d="M9.99995 16.9C12.1 16.9 13.8 15.2 13.8 13.1C13.8 11 12.1 9.29999 9.99995 9.29999C7.89995 9.29999 6.19995 11 6.19995 13.1C6.29995 15.2 7.89995 16.9 9.99995 16.9Z" fill="#8C8C8C"/>
<path d="M24.8 0.100024V14.6C21.8 14.5 18.8 14.5 15.8 14.4H14.9C14.7 14.4 14.6 14.3 14.6 14.1C14.7 13.8 14.7 13.4 14.7 13.2C14.7 10.6 12.7 8.50002 10.1 8.40002C7.9 8.40002 5.9 10 5.4 12.2C5.2 12.9 5.2 13.5 5.3 14.2C5.2 14.2 5 14.2 4.6 14.1C3.5 13.9 2.2 13.9 1.2 13.4C-1.54972e-06 12.9 -1.49012e-06 11.9 -1.49012e-06 10.7C-1.49012e-06 10.4 -0.200002 9.80003 0.0999985 9.60003C0.699999 9.20003 0.899998 9.00002 1.1 8.40002C1.3 8.00002 1.4 7.70002 1.4 7.50002C1.4 7.20002 1.3 7.00002 1.3 6.70002C1.1 6.10002 1.4 5.80002 1.5 5.20002C1.5 5.00002 1.3 4.70002 1.4 4.50002C1.6 4.20002 1.9 4.40002 2.2 4.40002C4.5 4.40002 6.6 3.20002 8.6 2.40002C10.5 1.60002 12.4 0.800024 14.4 0.600024C16.8 0.300024 19.2 0.100024 21.6 0.100024C22.7 2.44156e-05 23.8 2.44156e-05 24.8 0.100024Z" fill="#8C8C8C"/>
<path d="M49 17C51.1 17 52.7999 15.3 52.7999 13.2C52.7999 11.1 51.1 9.29999 49 9.29999C46.9 9.29999 45.2 11 45.2 13.1C45.2 15.2 46.9 17 49 17Z" fill="#8C8C8C"/>
<path d="M57.7 13.7C57.7 14.2 57.0999 14.2 56.5999 14.3C56.2999 14.4 55.9999 14.5 55.5999 14.5C54.9999 14.6 54.2999 14.7 53.5999 14.7C53.3999 14.7 53.2999 14.6 53.2999 14.4C53.3999 13.9 53.5 13.5 53.5 13C53.5 10.4 51.4 8.3 48.9 8.2C46.6 8.2 44.4999 9.9 44.0999 12.2C43.9999 12.7 44.1 14 44.2 14.3C44.2 14.6 44.0999 14.7 43.7999 14.7H43C40.7 14.7 38.4999 14.6 36.2999 14.6C34.7999 14.6 33.2 14.5 31.7 14.5V0C32.7 0.1 33.7 0.2 34.7 0.4C37 0.8 38.9 2 40.9 3.1C41.8 3.6 42.8 4.2 43.7 4.8C44.5 5.3 44.5999 5.3 45.2999 5.2C45.8999 5.2 46.3999 5.3 47.0999 5.3C48.5999 5.5 50 5.7 51.4 6.1C53.2 6.5 54.7999 7 56.2999 8C57.3999 8.7 57.5999 9.6 57.7999 10.8C57.8999 11.3 57.8999 11.8 57.7999 12.4C57.7999 12.7 57.7 13 57.7 13.2C57.6 13.3 57.7 13.6 57.7 13.7Z" fill="#8C8C8C"/>
<path d="M23 0H31.8013L32.6 14.5L24.8 14.6L23 0Z" fill="#8C8C8C"/>
</g>
<defs>
<clipPath id="clip0">
<rect width="57.7" height="17" fill="white"/>
</clipPath>
</defs>
</svg>
