<svg width="56" height="25" viewBox="0 0 56 25" fill="none" xmlns="http://www.w3.org/2000/svg">
<g clip-path="url(#clip0)">
<path d="M46.8627 25C48.81 25 50.3887 23.3536 50.3887 21.3228C50.3887 19.292 48.81 17.6457 46.8627 17.6457C44.9154 17.6457 43.3368 19.292 43.3368 21.3228C43.3368 23.3536 44.9154 25 46.8627 25Z" fill="#8C8C8C"/>
<path d="M11.584 25C13.5313 25 15.11 23.3536 15.11 21.3228C15.11 19.292 13.5313 17.6457 11.584 17.6457C9.63672 17.6457 8.05811 19.292 8.05811 21.3228C8.05811 23.3536 9.63672 25 11.584 25Z" fill="#8C8C8C"/>
<path d="M55.9807 20.0699C55.9393 19.7236 55.6076 19.5937 55.5662 19.2474C55.5247 18.9444 55.732 18.7713 55.7734 18.4683C55.8149 17.6891 55.6491 16.7801 55.5662 15.9576C55.5247 15.5248 55.4832 14.8755 55.2345 14.4859C54.9029 13.9232 54.0323 13.5769 53.5349 13.3172C53.3276 13.1873 52.9959 13.0142 52.7887 12.9276C51.4206 12.2783 50.0111 11.7156 48.5602 11.1961C47.9384 10.9797 47.3165 10.6334 46.7776 10.2006C46.2802 9.7677 45.8656 9.33484 45.4096 8.8154C44.539 7.81981 43.627 6.86751 42.715 5.9585C41.7615 5.0062 40.8081 4.14047 39.8131 3.27475C38.7767 2.36573 37.7818 1.80301 36.5796 1.15371C35.4603 0.547705 34.4654 0.158128 33.1803 0.0715549C31.8951 -0.0583042 30.5686 0.0282688 29.2835 0.0282688C27.1692 0.0282688 25.0136 0.0715549 22.8993 0.0715549C17.593 0.114841 12.2868 0.158128 7.02192 0.158128C5.52953 0.158128 3.99568 0.0715551 2.50328 0.114841C2.08873 0.114841 1.54981 0.114841 1.25962 0.461132C1.01089 0.764137 1.01089 1.54329 0.969436 1.93287C0.679248 4.78977 0.430516 7.64667 0.223239 10.5036C0.0574172 13.0575 0.0574172 15.5681 0.0574172 18.122C0.0574172 18.8145 0.0574172 19.5071 0.0574172 20.1564C0.0574172 20.5893 -0.149859 21.4117 0.223239 21.6714C0.38906 21.8013 0.886525 21.8013 1.05235 21.8446C1.50836 21.9312 1.92291 22.0177 2.37892 22.1043C2.79347 22.1909 3.20803 22.2342 3.62258 22.3207C4.49314 22.4506 5.36371 22.5805 6.19281 22.7103C6.44155 22.7536 7.02192 22.9268 7.31211 22.8402C7.10483 22.2342 7.06338 21.5416 7.14629 20.849C7.39502 18.5981 9.26051 16.8234 11.4162 16.7801C13.9035 16.7368 15.9348 18.8145 15.9348 21.4117C15.9348 21.5849 15.9348 21.758 15.8934 21.9312C15.8519 22.2342 15.8519 22.4506 15.8105 22.5372C15.8105 22.667 15.8934 22.7536 15.9763 22.7536C16.3494 22.7536 17.0127 22.7536 17.2199 22.7536C17.7174 22.7536 18.1734 22.7536 18.6709 22.7969C19.0854 22.7969 19.5 22.7969 19.9145 22.8402C22.1946 22.8835 24.5161 22.8402 26.7961 22.8402C30.3613 22.8402 33.9265 22.8402 37.4916 22.8402C38.4865 22.8402 39.5229 22.8402 40.5179 22.8402C40.6837 22.8402 40.8495 22.8402 41.0153 22.8402C41.4299 22.8402 41.803 22.8835 42.2175 22.8402C42.5906 22.7969 42.5492 22.8402 42.5492 22.4939C42.3834 21.7147 42.3419 20.8057 42.6735 19.8967C43.3368 17.9921 45.0365 16.6935 46.9434 16.7801C49.3479 16.8234 51.2548 18.9011 51.2548 21.4117C51.2548 21.5416 51.2134 22.061 51.1719 22.364C51.1304 22.4939 51.2548 22.5805 51.3792 22.5805C52.1668 22.4506 54.5712 21.9312 55.0687 21.5849C55.6076 21.1953 56.1051 20.8923 55.9807 20.0699Z" fill="#8C8C8C"/>
</g>
<defs>
<clipPath id="clip0">
<rect width="56" height="25" fill="white"/>
</clipPath>
</defs>
</svg>
