<svg width="39" height="20" viewBox="0 0 39 20" fill="none" xmlns="http://www.w3.org/2000/svg">
<path d="M37.9763 15.6892C37.3913 15.6892 36.9525 16.1404 36.9525 16.7419C36.9525 17.3434 36.465 17.8446 35.88 17.8446H31.1025L29.0063 15.7895H31.3463C33.2475 15.7895 34.8075 14.2356 34.8075 12.381C34.8075 11.4286 34.4175 10.5764 33.7838 9.97494C33.2475 9.47368 27.7388 6.76692 25.9838 5.91479L22.815 1.25313C22.2788 0.451128 21.3525 0 20.4263 0C19.89 0 19.305 0.150376 18.8175 0.451128C17.5012 1.30326 17.16 3.05764 18.0375 4.3609L20.7675 8.3208L17.6963 10.1253H15.4538C15.5513 9.87469 15.6487 9.52381 15.6487 9.17293C15.6487 7.61905 14.3813 6.41604 12.7725 6.41604H4.875C3.315 6.41604 1.99875 7.61905 1.99875 9.17293C1.99875 9.52381 2.09625 9.87469 2.19375 10.2256C0.92625 10.5263 0 11.6291 0 12.9825C0 14.0351 0.584999 14.9875 1.51125 15.4887L0 16.9424V17.3434C0 18.797 1.21875 20 2.68125 20H14.5275C15.2587 20 15.9413 19.6491 16.5263 19.0476C16.7213 18.8471 18.5737 16.9925 19.7925 15.7895L19.8412 15.7393H25.9838L28.08 17.7945H19.7925C19.2075 17.7945 18.7688 18.2456 18.7688 18.8471C18.7688 19.3985 19.2563 19.8997 19.7925 19.8997H35.8312C37.5863 19.8997 39 18.4962 39 16.7419C39 16.1404 38.5125 15.6892 37.9763 15.6892ZM15.015 17.6942C14.9175 17.7945 14.7225 17.995 14.5275 17.995H2.68125C2.48625 17.995 2.34 17.8947 2.2425 17.7444L4.14375 15.7895H16.9162C16.0875 16.5414 15.1613 17.4937 15.015 17.6942Z" fill="#8C8C8C"/>
</svg>
