<svg width="50" height="20" viewBox="0 0 50 20" fill="none" xmlns="http://www.w3.org/2000/svg">
<g clip-path="url(#clip0)">
<path d="M10.867 20C8.55994 20 6.67578 18.1235 6.63733 15.8342C6.63733 13.5448 8.55994 11.6683 10.9055 11.6683C13.2127 11.6683 15.1352 13.5448 15.0968 15.8342C15.0968 18.161 13.2127 20 10.867 20Z" fill="#F14944"/>
<path d="M45.7235 15.8342C45.7235 18.161 43.8774 20 41.5312 20C39.1851 20 37.262 18.161 37.262 15.8716C37.262 13.5448 39.1081 11.7058 41.4928 11.6683C43.8004 11.6683 45.7235 13.5448 45.7235 15.8342Z" fill="#F14944"/>
<path d="M49.9218 12.766C49.8065 12.1604 49.3835 11.7818 49.1143 11.2897C48.499 10.3434 48.0761 9.77564 47.4608 8.82926C47.3455 8.64 46.9225 8.14791 46.115 8.03435C42.8081 7.65582 40.078 7.23943 36.8096 6.78519C36.1175 6.67163 35.4254 6.63378 34.887 6.02813C33.7335 4.85467 32.4645 3.75694 31.3109 2.58348C30.7342 2.01568 30.0805 1.63715 29.3115 1.41004C26.0045 0.539409 22.6593 0.0851698 19.237 0.0473166C14.7381 -0.0283899 10.2007 0.00946324 5.6634 0.00946324C5.43269 0.00946324 5.24043 0.0473165 5.08662 0.123023C4.85591 0.236583 4.81745 0.577262 5.04816 0.728674C5.08662 0.766527 5.16352 0.804381 5.20197 0.804381C5.39424 0.917936 5.43269 0.993645 5.35578 1.22076C4.74055 2.62134 4.47138 4.05975 4.43293 5.57389C4.43293 5.76315 4.43293 5.99027 4.12532 6.02813C4.20222 5.38462 4.24067 4.77897 4.31757 4.17332C4.43294 3.11343 3.70235 2.2428 2.54878 2.12925C1.51057 2.01568 0.626174 2.77275 0.510817 3.79478C0.318556 5.46033 0.164748 7.16373 0.0109399 8.82926C-0.104416 10.0027 0.703078 10.8734 1.93355 10.8734C2.27962 10.8734 2.62568 10.7219 2.97175 10.6462C2.8564 11.4412 2.8564 12.1982 2.97175 12.9553C3.16401 14.1665 3.62544 15.2265 5.00971 15.7185C5.00971 15.7185 5.00971 15.7185 5.04816 15.7185C5.24043 15.7564 5.43269 15.605 5.47114 15.4157C5.70185 12.766 8.04743 10.6462 10.816 10.6462C13.7768 10.6841 16.1608 13.031 16.1608 15.87C16.1608 15.9456 16.1608 16.0593 16.1608 16.1349C16.1608 16.3242 16.3146 16.5135 16.5069 16.5135C16.7761 16.5514 16.9683 16.5514 17.0067 16.5514C18.4295 16.5892 19.8138 16.6649 21.2365 16.7027C24.2742 16.7785 27.3119 16.8542 30.3496 16.9298C32.0031 16.9677 33.6565 16.9677 35.31 17.0055C35.3485 17.0055 35.7329 17.0055 36.2713 17.0055C36.1944 16.6649 36.1559 16.2864 36.1559 15.9078C36.1559 13.0688 38.5784 10.6841 41.5007 10.6841C44.4231 10.7219 46.8072 13.0688 46.8072 15.9078C46.8072 16.0971 46.8072 16.2864 46.7687 16.4377C46.7687 16.627 46.9225 16.7405 47.0763 16.7027C47.6146 16.5892 48.3453 16.3242 48.6144 16.1349C49.768 15.3022 50.1909 14.1665 49.9218 12.766Z" fill="#F14944"/>
</g>
<defs>
<clipPath id="clip0">
<rect width="50" height="20" fill="white"/>
</clipPath>
</defs>
</svg>
