<svg width="54" height="20" viewBox="0 0 54 20" fill="none" xmlns="http://www.w3.org/2000/svg">
<g clip-path="url(#clip0)">
<path d="M10.8775 20C12.8275 20 14.4082 18.408 14.4082 16.4442C14.4082 14.4803 12.8275 12.8883 10.8775 12.8883C8.92746 12.8883 7.34668 14.4803 7.34668 16.4442C7.34668 18.408 8.92746 20 10.8775 20Z" fill="#F14944"/>
<path d="M46.1674 19.9999C48.1174 19.9999 49.6981 18.4079 49.6981 16.4441C49.6981 14.4802 48.1174 12.8882 46.1674 12.8882C44.2174 12.8882 42.6366 14.4802 42.6366 16.4441C42.6366 18.4079 44.2174 19.9999 46.1674 19.9999Z" fill="#F14944"/>
<path d="M53.6132 15.3552C53.281 15.1879 53.0733 15.1461 53.2394 14.7698C53.364 14.4771 53.5302 14.5608 53.6963 14.3099C53.9455 13.85 53.5717 13.2646 53.4886 12.8046C53.281 11.7593 53.1979 10.505 52.3673 9.79416C50.623 8.28892 47.9649 7.82899 45.8468 7.2018C45.1823 7.03455 44.1855 6.53281 43.6041 6.1565C43.2718 5.94744 42.9811 5.73837 42.6488 5.4875C41.8182 4.94394 41.0291 4.35857 40.1985 3.81501C38.2049 2.51883 36.1284 1.0554 33.761 0.637279C31.3107 0.177344 28.7357 0.260968 26.2853 0.135531C24.0841 0.0100947 21.7999 0.010095 19.5987 0.010095C15.1548 -0.0317172 10.6694 0.051907 6.18393 0.344593C4.97951 0.428217 3.77508 0.595467 2.61219 0.720904C1.82309 0.804528 1.86462 0.762715 2.19688 1.3899C2.40453 1.76621 2.15534 2.14252 2.03075 2.56064C1.36624 4.86032 0.992453 7.15999 0.826326 9.54329C0.743262 10.7558 0.784794 11.9684 0.660199 13.181C0.577135 13.85 0.369476 14.3099 0.120285 14.9371C-0.0873735 15.4806 -0.00431007 16.066 0.203349 16.6096C0.369476 17.1531 0.535603 17.1113 0.992453 17.1113C1.78156 17.1531 2.61219 17.2367 3.4013 17.2786C4.06581 17.3204 4.73031 17.3622 5.39482 17.404C5.85167 17.4458 6.30852 17.6131 6.39159 17.1113C6.43312 16.8186 6.47465 16.5677 6.51618 16.2751C6.55771 15.1879 6.9315 14.2263 7.55448 13.4736C7.80367 13.181 8.09439 12.8883 8.42664 12.6792C8.46817 12.6792 8.46818 12.6374 8.50971 12.6374L8.55124 12.5956C9.25728 12.1356 10.0464 11.8848 10.9186 11.8848C13.3689 11.8848 15.2794 13.8918 15.2794 16.4005C15.2794 16.6514 15.2379 16.9441 15.1963 17.1949L15.0302 17.5712C15.0302 17.5712 19.3495 17.6549 20.9692 17.6967C23.0458 17.7385 25.0809 17.7803 27.116 17.8639C29.3171 17.9057 31.4768 17.9894 33.6364 18.0312C35.2147 18.073 36.7513 18.1148 38.3295 18.1148C38.8279 18.1148 39.3678 18.1148 39.8662 18.1566H41.2783C41.486 18.1566 41.6105 17.9894 41.6521 17.8221C41.6936 17.2786 41.7351 16.3169 41.7767 16.1914C41.9013 13.7663 43.8948 11.843 46.3036 11.9266C48.5464 12.0102 50.4153 13.8918 50.5399 16.1496C50.5814 16.8186 50.4568 17.4876 50.2492 18.073C50.2076 18.1984 50.2907 18.2821 50.4153 18.2821C50.8721 18.2821 51.2875 18.2402 51.7443 18.1984C52.2842 18.1566 53.0733 18.2402 53.5302 17.9476C54.0286 17.6549 53.9455 16.9859 53.987 16.4841C54.0286 15.9824 53.987 15.8151 53.6132 15.3552Z" fill="#F14944"/>
</g>
<defs>
<clipPath id="clip0">
<rect width="54" height="20" fill="white"/>
</clipPath>
</defs>
</svg>
