<svg width="19" height="19" viewBox="0 0 19 19" fill="none" xmlns="http://www.w3.org/2000/svg">
<path d="M9.5032 4.62181C6.80915 4.62181 4.62811 6.80523 4.62811 9.4969C4.62811 12.1909 6.81153 14.372 9.5032 14.372C12.1972 14.372 14.3783 12.1886 14.3783 9.4969C14.3783 6.80286 12.1949 4.62181 9.5032 4.62181ZM9.5032 12.6612C7.75441 12.6612 6.3389 11.2449 6.3389 9.4969C6.3389 7.7489 7.7552 6.33261 9.5032 6.33261C11.2512 6.33261 12.6675 7.7489 12.6675 9.4969C12.6683 11.2449 11.252 12.6612 9.5032 12.6612Z" fill="#C6C6C6"/>
<path d="M13.4172 0.0601694C11.6692 -0.0213723 7.33954 -0.0174139 5.58996 0.0601694C4.05254 0.132211 2.69641 0.503503 1.60312 1.59679C-0.224045 3.42396 0.00949681 5.88604 0.00949681 9.49684C0.00949681 13.1923 -0.196337 15.5974 1.60312 17.3969C3.43741 19.2304 5.93512 18.9905 9.50316 18.9905C13.1638 18.9905 14.4273 18.9929 15.7217 18.4918C17.4816 17.8085 18.81 16.2355 18.9398 13.41C19.0222 11.6613 19.0174 7.33242 18.9398 5.58284C18.7831 2.24754 16.9931 0.224836 13.4172 0.0601694ZM16.184 16.188C14.9862 17.3858 13.3245 17.2789 9.48021 17.2789C5.52187 17.2789 3.93458 17.3375 2.77637 16.1761C1.44241 14.8485 1.68387 12.7165 1.68387 9.48417C1.68387 5.11021 1.235 1.96017 5.62479 1.73534C6.63337 1.69971 6.93025 1.68784 9.46912 1.68784L9.50475 1.71159C13.7235 1.71159 17.0335 1.26984 17.2322 5.65884C17.2773 6.66029 17.2876 6.96113 17.2876 9.49604C17.2868 13.4085 17.3612 15.0053 16.184 16.188Z" fill="#C6C6C6"/>
<path d="M14.5714 5.56858C15.2006 5.56858 15.7107 5.05854 15.7107 4.42937C15.7107 3.8002 15.2006 3.29016 14.5714 3.29016C13.9423 3.29016 13.4322 3.8002 13.4322 4.42937C13.4322 5.05854 13.9423 5.56858 14.5714 5.56858Z" fill="#C6C6C6"/>
</svg>
