<svg width="90" height="110" viewBox="0 0 90 110" fill="none" xmlns="http://www.w3.org/2000/svg">
<circle cx="45" cy="45" r="45" fill="white"/>
<path d="M37.8378 24.6216L30.2252 26.027L22.8468 48.6306L29.1712 47.4594L30.4595 43.009L35.6126 42.072H35.7297L36.5496 41.9549L37.2523 45L37.4865 45.9369L43.6937 44.7657L37.8378 24.6216ZM31.7477 38.3243L33.973 30.4774H34.0901L35.7297 37.5045L31.7477 38.3243Z" fill="black"/>
<path d="M67.2342 51.91L58.2162 53.5496L58.0991 57.7658L61.3784 57.1802C61.3784 58.0001 61.027 58.8199 60.4414 59.4055C59.8559 60.1082 59.1532 60.4595 58.2162 60.6937C57.045 60.928 55.991 60.6937 55.1712 60.1082C54.3513 59.5226 53.8829 58.4685 53.6486 57.0631C53.4144 55.6577 53.4144 54.3694 53.6486 53.1983C53.8829 52.0271 54.3514 50.973 55.0541 50.1532C55.7568 49.3334 56.5766 48.8649 57.6306 48.6307C58.5676 48.5136 59.3874 48.5136 60.0901 48.982C60.7928 49.3334 61.2613 49.919 61.3784 50.6217L67.1171 49.5676C67.1171 49.4505 67.1171 49.2163 67.1171 49.0992C67 48.1622 66.5315 47.3424 65.9459 46.6397C65.3604 45.937 64.5405 45.2343 63.7207 44.7658C62.7838 44.2974 61.8468 43.946 60.5586 43.8289C59.3874 43.7118 58.0991 43.7118 56.8108 43.946C55.1712 44.2973 53.6486 44.8829 52.3604 45.7028C51.0721 46.6397 50.018 47.6937 49.1982 48.982C48.3784 50.2703 47.7928 51.6757 47.5586 53.3154C47.3243 54.955 47.3243 56.7118 47.6757 58.4685C48.1441 61.1622 49.4324 63.1532 51.4234 64.4415C53.4144 65.7298 55.7568 66.0811 58.4504 65.6127C61.3784 65.0271 63.6036 63.8559 65.1261 61.8649C66.6486 59.8739 67.3513 57.4145 67.3513 54.2523L67.2342 51.91Z" fill="black"/>
<path d="M64.7748 52.9639L66.4144 52.6125V56.0089C66.4144 56.1261 66.4144 53.1981 64.7748 52.9639Z" fill="black"/>
<path d="M35.2613 26.144L37.2523 25.6755L39.2432 32.5854C39.2432 32.5854 36.9009 25.6755 35.2613 26.144Z" fill="black"/>
<path d="M54.5856 71C50.7207 71 46.973 69.3604 44.2793 66.4324C41 62.9189 39.7117 58 40.8829 53.4324L41.7027 50.3874L15 54.955L25.4234 22.1622L41.7027 19L48.6126 40.3153L57.3964 38.4414C62.3153 37.5045 67.2342 39.027 70.7477 42.6577C74.1441 46.2883 75.4324 51.3243 74.2613 56.1261L73.5586 58.9369C72.036 64.6757 67.3513 69.009 61.6126 70.0631L57.045 70.8829C56.2252 70.8829 55.4054 71 54.5856 71ZM46.036 46.2883L44.045 54.2523C43.1081 57.8829 44.1622 61.6306 46.6216 64.3243C49.0811 67.018 52.8288 68.3063 56.4595 67.6036L61.027 66.7838C65.5946 65.964 69.2252 62.5676 70.3964 58.1171L71.0991 55.5405C72.036 51.7928 71.0991 47.9279 68.4054 45.1171C65.7117 42.3063 61.964 41.018 58.0991 41.8378L46.3874 44.2973L39.3604 22.8649L27.7658 25.2072L19.5676 50.973L46.036 46.2883Z" fill="black"/>
<path d="M42.7978 107.407L32.5 88H58L48.1201 107.365C47.0168 109.527 43.9357 109.552 42.7978 107.407Z" fill="white"/>
</svg>
