<svg width="166" height="140" viewBox="0 0 166 140" fill="none" xmlns="http://www.w3.org/2000/svg">
<path d="M0 140V0H166V111.599L0 140Z" fill="#F14944"/>
<path d="M35.9597 47.6708L28.349 49.0997L20.8322 72.2483L27.2685 71.0099L28.5369 66.4374L33.7987 65.4371H33.8926L34.7852 65.2466L35.5369 68.3902L35.7718 69.3905L42.0201 68.1997L35.9597 47.6708ZM29.7584 61.7219L31.9664 53.7199L32.1074 53.6723L33.7517 60.9122L29.7584 61.7219Z" fill="white"/>
<path d="M55.0805 44.0509L54.7516 57.578C54.7047 59.7214 53.7651 60.9598 51.9798 61.3409C51.1342 61.4837 50.4295 61.3885 49.7718 61.0074C49.1141 60.6264 48.7382 60.0548 48.5973 59.2451C48.5503 58.9117 48.5033 58.5306 48.5033 58.102L48.7852 45.194L42.7248 46.3371L42.3959 59.2927C42.3959 59.9119 42.4429 60.5311 42.5369 61.1027C42.9127 63.2461 44.0402 64.7703 45.8724 65.7705C47.7047 66.7708 49.9597 67.0089 52.6845 66.485C55.0805 66.0087 57.0067 65.0084 58.51 63.4842C59.9664 61.9124 60.7651 60.0072 60.812 57.7685L61.1409 42.7648L55.0805 44.0509Z" fill="white"/>
<path d="M102.107 43.9556C101.872 42.6696 101.45 41.5264 100.839 40.5262C100.228 39.5259 99.4295 38.7162 98.4899 38.0494C97.5503 37.3825 96.4228 36.9539 95.1544 36.7157C93.8859 36.4776 92.4765 36.5252 91.0201 36.811C89.4228 37.0968 88.0134 37.716 86.745 38.5733C85.4765 39.4307 84.396 40.5262 83.5504 41.8598C82.7047 43.1459 82.141 44.6701 81.8591 46.3848C81.5772 48.0995 81.5772 49.9095 81.9061 51.7671C82.141 53.0531 82.5638 54.1962 83.2215 55.1965C83.8792 56.1967 84.6309 57.0541 85.5705 57.6733C86.5101 58.2925 87.6376 58.7688 88.9061 58.9593C90.1745 59.1975 91.5369 59.1498 92.9933 58.8641C94.5906 58.5783 96 57.9591 97.3154 57.1017C98.5839 56.1967 99.6644 55.1489 100.51 53.8628C101.356 52.5768 101.919 51.0526 102.248 49.3379C102.483 47.6708 102.436 45.8608 102.107 43.9556ZM95.4363 51.1002C94.6846 52.7673 93.604 53.7199 92.1946 54.0057C91.1611 54.1962 90.2215 53.9581 89.4698 53.2913C88.7181 52.6244 88.2014 51.6242 87.9195 50.2905C87.6846 48.9568 87.6846 47.6708 87.9195 46.3848C88.1544 45.1464 88.6242 44.0985 89.2819 43.2888C89.9396 42.479 90.7383 41.9551 91.6779 41.8122C92.7114 41.6217 93.651 41.8598 94.4027 42.5267C95.1544 43.1935 95.6711 44.1938 95.953 45.5274C96.3758 47.5755 96.1879 49.4332 95.4363 51.1002Z" fill="white"/>
<path d="M65.698 75.6777L56.6309 77.3924L56.5369 81.6792L59.8725 81.06C59.8255 81.9174 59.4966 82.7271 58.8859 83.3939C58.2751 84.0608 57.5235 84.4894 56.6309 84.68C55.4094 84.9181 54.4228 84.68 53.6241 84.0131C52.8255 83.3463 52.3087 82.3461 52.0268 80.9171C51.7449 79.4882 51.7449 78.1545 51.9798 76.9161C52.2147 75.6777 52.6845 74.6299 53.3892 73.8201C54.0939 73.0104 54.9396 72.4865 55.9731 72.2959C56.9127 72.1054 57.7114 72.2007 58.4161 72.5817C59.1208 72.9628 59.5436 73.5343 59.7785 74.2488L65.604 73.1533C65.604 73.0104 65.557 72.8199 65.557 72.677C65.3691 71.772 64.9933 70.9147 64.3825 70.1526C63.7718 69.3905 63.0201 68.7713 62.1275 68.2473C61.2349 67.7234 60.2013 67.39 58.9798 67.2471C57.7584 67.0566 56.5369 67.1042 55.2215 67.3423C53.5302 67.6758 52.0268 68.295 50.6644 69.1999C49.302 70.1049 48.2215 71.2004 47.4228 72.5341C46.6241 73.8201 46.0604 75.3443 45.7785 77.0114C45.4966 78.6785 45.4966 80.4408 45.8725 82.2508C46.3892 84.9657 47.6107 87.0139 49.6309 88.3475C51.651 89.6812 54 90.0622 56.7718 89.5383C59.7315 88.9667 61.9396 87.6807 63.4899 85.6802C65.0402 83.6797 65.7919 81.06 65.698 77.8688V75.6777Z" fill="white"/>
<path d="M98.302 59.6738L90.6913 61.1027L83.1745 84.2513L89.6107 83.0129L90.8792 78.4403L96.4698 77.3925L97.1275 77.2496L97.5973 79.2977L97.6443 79.4406L98.1141 81.3935L104.362 80.2027L98.302 59.6738ZM92.1477 73.7249L94.3557 65.7229H94.4966L96.1409 72.9628L92.1477 73.7249Z" fill="white"/>
<path d="M122.732 69.7239C122.45 68.2473 121.839 67.1518 120.805 66.4374C119.819 65.7229 118.315 65.2466 116.342 65.0561L113.946 64.8179C113.101 64.7226 112.443 64.5797 112.067 64.3416C111.691 64.1034 111.409 63.77 111.362 63.3413C111.268 62.8174 111.409 62.3887 111.879 61.9601C112.302 61.5314 112.913 61.2932 113.711 61.1027C114.557 60.9598 115.309 61.0074 115.919 61.2456C116.53 61.5314 116.906 61.9601 117.047 62.6269L122.591 61.579C122.215 59.4832 121.134 58.0067 119.396 57.1493C117.658 56.292 115.45 56.1015 112.772 56.5778C110.235 57.0541 108.262 58.102 106.899 59.7214C105.537 61.3409 105.02 63.1985 105.396 65.2942C105.913 68.1044 108.027 69.6763 111.785 70.1049L114.087 70.3431C115.074 70.4383 115.732 70.6289 116.107 70.8194C116.483 71.0099 116.671 71.3433 116.765 71.7244C116.859 72.2483 116.671 72.7246 116.201 73.1533C115.732 73.582 115.074 73.8678 114.181 74.0583C113.336 74.2012 112.584 74.1536 111.879 73.9154C111.221 73.6772 110.752 73.2486 110.564 72.677L104.832 73.7725C105.208 75.8206 106.289 77.2972 108.074 78.1545C109.859 79.0119 112.114 79.1548 114.933 78.6309C117.705 78.1069 119.772 77.059 121.228 75.4396C122.591 73.8201 123.107 71.9149 122.732 69.7239Z" fill="white"/>
<path d="M142.557 65.9134C142.275 64.4369 141.664 63.3414 140.631 62.6269C139.644 61.9124 138.141 61.4361 136.168 61.2456L133.772 61.0074C132.926 60.9122 132.268 60.7693 131.893 60.5311C131.517 60.293 131.235 59.9596 131.188 59.5309C131.094 59.007 131.282 58.5783 131.705 58.1496C132.128 57.7209 132.738 57.4351 133.537 57.2922C134.383 57.1493 135.134 57.197 135.745 57.4351C136.356 57.7209 136.732 58.1496 136.873 58.8164L142.416 57.7685C142.04 55.6728 140.96 54.1962 139.222 53.3389C137.483 52.4815 135.275 52.291 132.597 52.7673C130.06 53.2436 128.087 54.2915 126.725 55.9109C125.362 57.5304 124.846 59.388 125.221 61.4838C125.738 64.294 127.852 65.8658 131.611 66.2945L133.913 66.5326C134.899 66.6279 135.557 66.8184 135.933 67.0089C136.309 67.1995 136.497 67.5329 136.591 67.9139C136.685 68.4379 136.497 68.9142 136.074 69.3428C135.604 69.7715 134.946 70.0573 134.054 70.2478C133.208 70.3907 132.456 70.3431 131.752 70.1049C131.094 69.8668 130.624 69.4381 130.436 68.8665L124.705 69.962C125.081 72.0102 126.161 73.4867 127.946 74.3441C129.732 75.2014 131.987 75.3443 134.805 74.8204C137.577 74.2965 139.644 73.2486 141.101 71.6291C142.463 70.0097 142.98 68.1044 142.557 65.9134Z" fill="white"/>
<path d="M80.8724 39.1449L80.7315 44.1937L76.1275 45.0987L75.3288 61.6266L67.5771 63.1508V55.1965V55.1012L67.4362 46.7182L66.4966 46.9087L63.161 47.5279L63.3019 42.479L67.5301 41.6693L76.3624 40.0022L80.8724 39.1449Z" fill="white"/>
<path d="M82.5168 84.3942L74.1544 85.966H74.1074L67.7651 87.3473L67.6711 65.199L75.1879 63.8653L74.4362 80.7266L82.6577 79.1548L82.5168 84.3942Z" fill="white"/>
<path d="M52.6845 95.5398C48.6913 95.5398 44.8859 93.8251 42.1611 90.6814C38.8255 86.8234 37.745 81.584 39.3423 76.678L40.2819 73.8678L12.4698 79.25L22.1476 49.1474C22.9463 46.6706 25.0134 44.813 27.5503 44.3366L92.4295 31.7621C97.3154 30.8095 102.201 32.5242 105.49 36.287C108.779 40.0499 109.812 45.194 108.262 50.0047L107.557 52.1957L132.268 47.004C137.906 45.8132 143.544 47.7184 147.396 52.0528C151.248 56.3872 152.517 62.2935 150.732 67.8663C148.993 73.4391 144.389 77.583 138.752 78.6785L55.4564 95.254C54.5168 95.4445 53.5772 95.5398 52.6845 95.5398ZM45.1208 69.5334L42.4429 77.7259C41.2215 81.4887 42.0201 85.4897 44.604 88.4428C47.1879 91.3959 50.9933 92.7296 54.8456 91.9675L138.141 75.3919C142.604 74.487 146.268 71.2004 147.631 66.8184C149.04 62.3887 148.054 57.7209 144.953 54.2439C141.899 50.8144 137.389 49.2902 132.926 50.2429L102.718 56.5778L105.161 48.9568C106.336 45.2893 105.537 41.3835 103.047 38.478C100.51 35.5726 96.7986 34.2865 93.0403 35.001L28.1611 47.5755C26.7986 47.8613 25.6711 48.8139 25.2483 50.1952L17.3087 74.9156L45.1208 69.5334Z" fill="white"/>
<path d="M58.7449 44.2414L60.3892 43.8603L59.9664 53.3865C59.9664 53.3865 60.3892 44.67 58.7449 44.2414Z" fill="black"/>
<path d="M72.651 65.4371L74.2953 65.0084L73.8725 74.5346C73.9195 74.5822 74.2953 65.8658 72.651 65.4371Z" fill="black"/>
<path d="M78.3826 40.288L80.0269 39.9546V43.4316C80.0269 43.4316 80.0269 40.4309 78.3826 40.288Z" fill="black"/>
<path d="M63.255 76.8209L64.8993 76.4875V79.9645C64.8993 79.9645 64.8993 76.9638 63.255 76.8209Z" fill="black"/>
<path d="M119.349 61.2932L121.416 60.8645C121.416 60.8645 120.993 58.3877 117.752 57.5304C117.705 57.5304 122.638 59.6261 119.349 61.2932Z" fill="black"/>
<path d="M139.409 57.5304L141.477 57.1017C141.477 57.1017 141.054 54.6249 137.812 53.7675C137.812 53.8152 142.698 55.8633 139.409 57.5304Z" fill="black"/>
<path d="M33.3758 49.2426L35.4429 48.8139L37.51 55.8633C37.463 55.8633 34.9731 48.8139 33.3758 49.2426Z" fill="black"/>
<path d="M95.6241 61.2932L97.6913 60.8645L99.7584 67.9139C99.7114 67.9139 97.2215 60.8645 95.6241 61.2932Z" fill="black"/>
<path d="M94.7785 37.6207C94.7785 37.6207 99.7114 38.0494 101.309 43.8603C101.356 43.8603 98.8657 38.4304 94.7785 37.6207Z" fill="black"/>
</svg>
