<svg width="12" height="12" viewBox="0 0 12 12" fill="none" xmlns="http://www.w3.org/2000/svg">
<path d="M6 0C3.60363 0 1.65405 1.94958 1.65405 4.34592C1.65405 7.31986 5.54325 11.6858 5.70883 11.8702C5.86437 12.0434 6.13591 12.0431 6.29116 11.8702C6.45675 11.6858 10.3459 7.31986 10.3459 4.34592C10.3459 1.94958 8.39634 0 6 0ZM6 6.53248C4.79433 6.53248 3.81347 5.55159 3.81347 4.34592C3.81347 3.14025 4.79435 2.15939 6 2.15939C7.20565 2.15939 8.18651 3.14027 8.18651 4.34595C8.18651 5.55162 7.20565 6.53248 6 6.53248Z" fill="#F14944"/>
</svg>
