<svg width="51" height="45" viewBox="0 0 51 45" fill="none" xmlns="http://www.w3.org/2000/svg">
<path d="M19.5 4.80005L13 6.00005L6.70001 25.3L12.1 24.3L13.2 20.5L17.6 19.7H17.7L18.4 19.6L19 22.2001L19.2 23L24.5 22L19.5 4.80005ZM14.3 16.5L16.2 9.80005H16.3L17.7 15.8L14.3 16.5Z" fill="white"/>
<path d="M44.6 28.1L36.9 29.5L36.8 33.1L39.6 32.6C39.6 33.3 39.3 34 38.8 34.5C38.3 35.1 37.7 35.4 36.9 35.6C35.9 35.8 35 35.6 34.3 35.1C33.6 34.6 33.2 33.7 33 32.5C32.8 31.3 32.8 30.2 33 29.2C33.2 28.2 33.6 27.3 34.2 26.6C34.8 25.9 35.5 25.5 36.4 25.3C37.2 25.2 37.9 25.2 38.5 25.6C39.1 25.9 39.5 26.4 39.6 27L44.5 26.1C44.5 26 44.5 25.8 44.5 25.7C44.4 24.9 44 24.2 43.5 23.6C43 23 42.3 22.4 41.6 22C40.8 21.6 40 21.3 38.9 21.2C37.9 21.1 36.8 21.1 35.7 21.3C34.3 21.6 33 22.1 31.9 22.8C30.8 23.6 29.9 24.5 29.2 25.6C28.5 26.7 28 27.9 27.8 29.3C27.6 30.7 27.6 32.2 27.9 33.7C28.3 36 29.4 37.7 31.1 38.8C32.8 39.9 34.8 40.2 37.1 39.8C39.6 39.3 41.5 38.3 42.8 36.6C44.1 34.9 44.7 32.8 44.7 30.1L44.6 28.1Z" fill="white"/>
<path d="M42.5 29L43.9 28.7V31.6C43.9 31.7 43.9 29.2 42.5 29Z" fill="#242E38"/>
<path d="M17.3 6.09995L19 5.69995L20.7 11.6C20.7 11.6 18.7 5.69995 17.3 6.09995Z" fill="#242E38"/>
<path d="M33.8 44.4C30.5 44.4 27.3 43 25 40.5C22.2 37.5 21.1 33.3 22.1 29.4L22.8 26.8L0 30.7L8.9 2.7L22.8 0L28.7 18.2L36.2 16.6C40.4 15.8 44.6 17.1 47.6 20.2C50.5 23.3 51.6 27.6 50.6 31.7L50 34.1C48.7 39 44.7 42.7 39.8 43.6L35.9 44.3C35.2 44.3 34.5 44.4 33.8 44.4ZM26.5 23.3L24.8 30.1C24 33.2 24.9 36.4 27 38.7C29.1 41 32.3 42.1 35.4 41.5L39.3 40.8C43.2 40.1 46.3 37.2 47.3 33.4L47.9 31.2C48.7 28 47.9 24.7 45.6 22.3C43.3 19.9 40.1 18.8 36.8 19.5L26.8 21.6L20.8 3.3L10.9 5.3L3.9 27.3L26.5 23.3Z" fill="#CF5046"/>
</svg>
