<svg width="19" height="14" viewBox="0 0 19 14" fill="none" xmlns="http://www.w3.org/2000/svg">
<g clip-path="url(#clip0)">
<path d="M12.191 0.832437C12.1314 0.773188 12.0604 0.726126 11.9821 0.693999C11.9037 0.661872 11.8196 0.645325 11.7347 0.645325C11.6497 0.645325 11.5656 0.661872 11.4872 0.693999C11.4089 0.726126 11.3379 0.773188 11.2783 0.832437C11.1598 0.950038 11.0934 1.10847 11.0934 1.27353C11.0934 1.43858 11.1598 1.59701 11.2783 1.71462L15.905 6.23459L0.639425 6.23459C0.555264 6.23421 0.471862 6.25014 0.394045 6.28146C0.316227 6.31279 0.245541 6.35888 0.186075 6.41708C0.126609 6.47527 0.079546 6.54441 0.0476084 6.6205C0.0156708 6.69659 -0.000506726 6.77811 1.20948e-05 6.86034C1.20948e-05 7.20862 0.282999 7.49375 0.638446 7.49375L15.9041 7.49375L11.2783 12.0061C11.16 12.1255 11.0938 12.2852 11.0938 12.4515C11.0938 12.6177 11.16 12.7775 11.2783 12.8969C11.5329 13.1466 11.9442 13.1466 12.191 12.8969L17.9124 7.30622C17.9728 7.24895 18.0209 7.1804 18.0538 7.10463C18.0866 7.02885 18.1035 6.94741 18.1035 6.86513C18.1035 6.78285 18.0866 6.7014 18.0538 6.62563C18.0209 6.54986 17.9728 6.48131 17.9124 6.42404L12.191 0.832437Z" fill="#F14944"/>
</g>
<defs>
<clipPath id="clip0">
<rect width="18.6047" height="13.3953" fill="#F14944"/>
</clipPath>
</defs>
</svg>
