<svg width="22" height="22" viewBox="0 0 22 22" fill="none" xmlns="http://www.w3.org/2000/svg">
<g clip-path="url(#clip0)">
<path d="M18.2554 11.9423C17.8997 11.4931 18.0015 11.2933 18.2554 10.8918C18.26 10.8872 21.1961 6.83 21.4986 5.45409L21.5004 5.45317C21.6507 4.95175 21.5004 4.58325 20.7735 4.58325H18.3682C17.7558 4.58325 17.4735 4.8995 17.3222 5.25334C17.3222 5.25334 16.0976 8.18484 14.3651 10.0851C13.8059 10.6342 13.5474 10.8102 13.2422 10.8102C13.0918 10.8102 12.8581 10.6342 12.8581 10.1328V5.45317C12.8581 4.85184 12.6867 4.58325 12.1797 4.58325H8.39758C8.0135 4.58325 7.78525 4.86375 7.78525 5.125C7.78525 5.69517 8.6515 5.82625 8.74133 7.43042V10.911C8.74133 11.6737 8.60292 11.8139 8.29583 11.8139C7.47817 11.8139 5.49358 8.8705 4.3175 5.50175C4.08008 4.84817 3.84817 4.58417 3.23125 4.58417H0.825C0.138417 4.58417 0 4.90042 0 5.25425C0 5.87942 0.817666 8.98784 3.80233 13.0945C5.7915 15.8977 8.59283 17.4166 11.1412 17.4166C12.6729 17.4166 12.8599 17.0793 12.8599 16.499C12.8599 13.8205 12.7215 13.5675 13.4887 13.5675C13.8444 13.5675 14.4567 13.7435 15.8867 15.0956C17.5212 16.6988 17.7897 17.4166 18.7046 17.4166H21.1099C21.7956 17.4166 22.143 17.0793 21.9432 16.4138C21.4857 15.014 18.3948 12.1348 18.2554 11.9423Z" fill="white"/>
</g>
<defs>
<clipPath id="clip0">
<rect width="22" height="22" fill="white"/>
</clipPath>
</defs>
</svg>
