<svg width="196" height="196" viewBox="0 0 196 196" fill="none" xmlns="http://www.w3.org/2000/svg">
<path d="M98 0C43.8382 0 0 43.8309 0 98C0 152.162 43.8309 196 98 196C152.162 196 196 152.169 196 98C196 43.8382 152.169 0 98 0ZM98 184.516C50.2951 184.516 11.4844 145.705 11.4844 98C11.4844 50.2951 50.2951 11.4844 98 11.4844C145.705 11.4844 184.516 50.2951 184.516 98C184.516 145.705 145.705 184.516 98 184.516Z" fill="#F14944"/>
<path d="M171.103 81.0605C163.403 47.819 133.549 22.9688 98.0002 22.9688C62.2975 22.9688 32.3271 48.1352 24.8745 81.1628C14.1206 127.887 49.6597 173.031 98.0002 173.031C146.888 173.031 182.281 126.65 171.103 81.0605ZM98.0002 34.4531C124.756 34.4531 147.701 51.0752 157.055 74.5344C122.961 67.5813 73.4979 67.4879 38.9448 74.5344C48.2996 51.0752 71.2446 34.4531 98.0002 34.4531V34.4531ZM38.9425 121.46C44.6468 122.619 50.8514 123.606 57.4963 124.406C64.2193 125.216 69.2892 130.934 69.2892 137.707V154.681C55.557 147.697 44.6866 135.869 38.9425 121.46V121.46ZM80.7736 159.173V137.706C80.7736 125.128 71.3568 114.508 58.8698 113.004C50.1524 111.954 42.2768 110.578 35.3935 108.907C34.1371 101.676 34.1424 94.2913 35.3939 87.0883C70.1854 78.6672 125.869 78.6802 160.606 87.0883C161.858 94.2909 161.863 101.676 160.607 108.907C153.724 110.578 145.848 111.954 137.13 113.004C124.644 114.508 115.227 125.128 115.227 137.707V159.173C104.11 162.308 92.1133 162.37 80.7736 159.173V159.173ZM126.711 154.681V137.707C126.711 130.934 131.781 125.216 138.504 124.406C145.149 123.606 151.354 122.619 157.058 121.46C151.314 135.869 140.443 147.697 126.711 154.681Z" fill="#F14944"/>
<path d="M115.227 103.742C115.227 94.2435 107.499 86.5156 98 86.5156C88.5013 86.5156 80.7734 94.2435 80.7734 103.742C80.7734 113.241 88.5013 120.969 98 120.969C107.499 120.969 115.227 113.241 115.227 103.742ZM98 109.484C94.8338 109.484 92.2578 106.908 92.2578 103.742C92.2578 100.576 94.8338 98 98 98C101.166 98 103.742 100.576 103.742 103.742C103.742 106.908 101.166 109.484 98 109.484Z" fill="#F14944"/>
</svg>
