<svg width="196" height="196" viewBox="0 0 196 196" fill="none" xmlns="http://www.w3.org/2000/svg">
<path d="M98 13.5175C43.8183 13.5175 0 57.4287 0 111.517C0 137.679 10.1985 162.285 28.7167 180.801C29.8376 181.922 31.3076 182.483 32.7768 182.483C34.2464 182.483 35.716 181.922 36.8373 180.801L54.23 163.407C56.4721 161.164 56.4721 157.529 54.23 155.286C49.3135 150.37 36.1704 135.748 36.0866 111.513C36.0889 77.0804 64.0495 49.6037 98 49.6037C132.415 49.6037 159.911 77.5413 159.913 111.513C159.864 125.928 155.105 139.135 146.585 149.88C137.735 136.154 117.978 105.979 110.758 98.7602C103.648 91.6499 92.2237 91.7777 85.2412 98.7602C78.1175 105.884 78.2737 117.307 85.2412 124.275C93.8691 132.904 135.286 159.439 142.224 163.861L159.162 180.801C160.284 181.922 161.753 182.483 163.223 182.483C164.692 182.483 166.162 181.922 167.283 180.801C185.801 162.284 196 137.679 196 111.517C196 57.3296 152.08 13.5175 98 13.5175V13.5175ZM42.2043 159.191L32.9081 168.488C20.3113 154.141 12.9119 136.293 11.6708 117.26H24.8227C26.0205 132.788 32.0644 147.362 42.2043 159.191V159.191ZM24.8223 105.775H11.6708C12.9115 86.7418 20.3109 68.8936 32.9081 54.5462L42.2043 63.8428C32.0548 75.6786 26.0182 90.243 24.8223 105.775ZM92.2578 38.3394C76.7252 39.5353 62.1592 45.5734 50.3245 55.7218L41.0291 46.4256C55.378 33.8287 73.2259 26.429 92.2578 25.1883V38.3394ZM93.3626 116.154C90.7836 113.575 90.8203 109.422 93.3622 106.881C95.9209 104.322 100.081 104.324 102.638 106.881C102.638 106.881 102.638 106.881 102.638 106.881C106.756 110.999 116.964 125.803 126.212 139.729C112.286 130.481 97.4809 120.274 93.3626 116.154V116.154ZM103.742 38.3394V25.1883C122.774 26.429 140.622 33.8287 154.971 46.4259L145.675 55.7222C133.841 45.5734 119.275 39.5353 103.742 38.3394V38.3394ZM153.796 63.8428L163.092 54.5462C175.689 68.8936 183.088 86.7418 184.329 105.775H171.178C169.982 90.243 163.945 75.6786 153.796 63.8428ZM163.092 168.488L153.796 159.191C163.936 147.362 169.979 132.788 171.177 117.259H184.329C183.088 136.293 175.689 154.141 163.092 168.488Z" fill="#F14944"/>
</svg>
