<svg width="197" height="196" viewBox="0 0 197 196" fill="none" xmlns="http://www.w3.org/2000/svg">
<path d="M116.409 53.4546H82.829C79.1218 53.4546 76.1131 56.448 76.1131 60.1364V115.818H60.4432C56.736 115.818 53.7273 118.811 53.7273 122.499C53.7273 126.188 56.736 129.181 60.4432 129.181H76.1131V135.863C76.1131 139.552 79.1218 142.545 82.829 142.545C86.5362 142.545 89.5449 139.552 89.5449 135.863V129.181H109.693C113.4 129.181 116.409 126.188 116.409 122.499C116.409 118.811 113.4 115.818 109.693 115.818H89.5449V106.909H116.409C131.219 106.909 143.272 94.9174 143.272 80.1819C143.272 65.4463 131.219 53.4546 116.409 53.4546ZM116.409 93.5455H89.5449V66.8182H116.409C123.815 66.8182 129.84 72.8133 129.84 80.1819C129.84 87.5505 123.815 93.5455 116.409 93.5455Z" fill="#F14944"/>
<path d="M98.5005 0C44.1912 0 0 43.9669 0 98.0005C0 152.034 44.1912 195.999 98.5005 195.999C152.81 195.999 196.999 152.034 196.999 98.0005C196.999 43.9669 152.81 0 98.5005 0V0ZM98.5005 182.636C51.5958 182.636 13.4318 144.666 13.4318 98.0005C13.4318 51.3338 51.5958 13.3636 98.5005 13.3636C145.404 13.3636 183.568 51.3338 183.568 98.0005C183.568 144.666 145.404 182.636 98.5005 182.636V182.636Z" fill="#F14944"/>
</svg>
